<svg width="758" height="188" viewBox="0 0 758 188" fill="none" xmlns="http://www.w3.org/2000/svg">
<path d="M247.021 118.703C247.021 117.518 246.619 116.503 245.815 115.656C245.054 114.768 243.7 113.964 241.753 113.244C239.806 112.482 237.077 111.721 233.564 110.959C230.221 110.24 227.069 109.287 224.106 108.103C221.187 106.918 218.626 105.479 216.426 103.786C214.225 102.093 212.49 100.083 211.221 97.7559C209.993 95.4284 209.38 92.7624 209.38 89.7578C209.38 86.8379 209.993 84.0872 211.221 81.5059C212.49 78.8822 214.331 76.5758 216.743 74.5869C219.198 72.5557 222.181 70.9688 225.693 69.8262C229.206 68.6413 233.205 68.0488 237.69 68.0488C243.869 68.0488 249.201 69.001 253.687 70.9053C258.172 72.7673 261.621 75.391 264.033 78.7764C266.488 82.1195 267.715 85.9915 267.715 90.3926H246.323C246.323 88.6576 246.027 87.1764 245.435 85.9492C244.884 84.722 243.975 83.791 242.705 83.1562C241.436 82.4792 239.743 82.1406 237.627 82.1406C236.146 82.1406 234.792 82.4157 233.564 82.9658C232.38 83.516 231.427 84.2777 230.708 85.251C229.989 86.2243 229.629 87.3669 229.629 88.6787C229.629 89.6097 229.84 90.4561 230.264 91.2178C230.729 91.9372 231.427 92.6143 232.358 93.249C233.289 93.8415 234.474 94.3916 235.913 94.8994C237.352 95.3649 239.087 95.7881 241.118 96.1689C245.731 97.0153 250.047 98.2214 254.067 99.7871C258.088 101.353 261.346 103.575 263.843 106.452C266.382 109.33 267.651 113.202 267.651 118.068C267.651 121.115 266.953 123.929 265.557 126.511C264.16 129.05 262.15 131.293 259.526 133.239C256.903 135.144 253.75 136.625 250.068 137.683C246.387 138.741 242.24 139.27 237.627 139.27C231.068 139.27 225.524 138.106 220.996 135.778C216.468 133.409 213.04 130.446 210.713 126.892C208.428 123.295 207.285 119.655 207.285 115.974H227.217C227.301 118.09 227.809 119.825 228.74 121.179C229.714 122.533 231.004 123.527 232.612 124.162C234.22 124.797 236.082 125.114 238.198 125.114C240.145 125.114 241.753 124.839 243.022 124.289C244.334 123.739 245.329 122.998 246.006 122.067C246.683 121.094 247.021 119.973 247.021 118.703ZM307.362 69.3184V84.1719H265.976V69.3184H307.362ZM274.672 52.2432H296.063V115.593C296.063 117.412 296.275 118.83 296.698 119.846C297.121 120.819 297.841 121.517 298.856 121.94C299.914 122.321 301.311 122.512 303.046 122.512C304.273 122.512 305.289 122.491 306.093 122.448C306.897 122.364 307.659 122.258 308.378 122.131V137.429C306.558 138.021 304.654 138.465 302.665 138.762C300.676 139.1 298.56 139.27 296.317 139.27C291.747 139.27 287.833 138.55 284.574 137.111C281.358 135.673 278.904 133.409 277.211 130.319C275.518 127.23 274.672 123.21 274.672 118.259V52.2432ZM345.042 120.734V92.4238C345.042 90.4772 344.767 88.8057 344.217 87.4092C343.667 86.0127 342.799 84.9336 341.614 84.1719C340.429 83.3678 338.842 82.9658 336.854 82.9658C335.245 82.9658 333.87 83.2409 332.728 83.791C331.585 84.3411 330.717 85.1663 330.125 86.2666C329.533 87.3669 329.236 88.7633 329.236 90.4561H307.845C307.845 87.2822 308.543 84.3411 309.939 81.6328C311.378 78.8822 313.41 76.4912 316.033 74.46C318.699 72.4287 321.873 70.863 325.555 69.7627C329.279 68.6201 333.426 68.0488 337.996 68.0488C343.455 68.0488 348.322 68.9587 352.596 70.7783C356.912 72.598 360.319 75.3275 362.815 78.9668C365.312 82.5638 366.561 87.0918 366.561 92.5508V120.671C366.561 125.157 366.814 128.563 367.322 130.891C367.83 133.176 368.549 135.186 369.48 136.921V138H348.025C347.01 135.884 346.248 133.303 345.74 130.256C345.275 127.167 345.042 123.993 345.042 120.734ZM347.645 96.042L347.771 107.468H338.313C336.325 107.468 334.632 107.743 333.235 108.293C331.881 108.843 330.781 109.605 329.935 110.578C329.131 111.509 328.538 112.567 328.157 113.752C327.819 114.937 327.649 116.185 327.649 117.497C327.649 118.767 327.946 119.909 328.538 120.925C329.173 121.898 330.019 122.66 331.077 123.21C332.135 123.76 333.32 124.035 334.632 124.035C337.002 124.035 339.012 123.591 340.662 122.702C342.355 121.771 343.646 120.65 344.534 119.338C345.423 118.026 345.867 116.799 345.867 115.656L350.564 124.416C349.718 126.109 348.745 127.823 347.645 129.558C346.587 131.293 345.254 132.901 343.646 134.382C342.08 135.821 340.154 137.006 337.869 137.937C335.584 138.825 332.812 139.27 329.554 139.27C325.322 139.27 321.429 138.402 317.874 136.667C314.362 134.932 311.548 132.52 309.432 129.431C307.316 126.299 306.258 122.702 306.258 118.64C306.258 115.085 306.893 111.911 308.162 109.118C309.474 106.325 311.442 103.955 314.065 102.009C316.689 100.062 320.032 98.5811 324.095 97.5654C328.157 96.5498 332.939 96.042 338.44 96.042H347.645ZM408.112 69.3184V84.1719H366.726V69.3184H408.112ZM375.422 52.2432H396.813V115.593C396.813 117.412 397.025 118.83 397.448 119.846C397.871 120.819 398.591 121.517 399.606 121.94C400.664 122.321 402.061 122.512 403.796 122.512C405.023 122.512 406.039 122.491 406.843 122.448C407.647 122.364 408.409 122.258 409.128 122.131V137.429C407.308 138.021 405.404 138.465 403.415 138.762C401.426 139.1 399.31 139.27 397.067 139.27C392.497 139.27 388.583 138.55 385.324 137.111C382.108 135.673 379.654 133.409 377.961 130.319C376.268 127.23 375.422 123.21 375.422 118.259V52.2432ZM432.716 69.3184V138H411.261V69.3184H432.716ZM409.991 51.6084C409.991 48.5615 411.091 46.0648 413.292 44.1182C415.493 42.1715 418.349 41.1982 421.861 41.1982C425.374 41.1982 428.23 42.1715 430.431 44.1182C432.631 46.0648 433.731 48.5615 433.731 51.6084C433.731 54.6553 432.631 57.152 430.431 59.0986C428.23 61.0452 425.374 62.0186 421.861 62.0186C418.349 62.0186 415.493 61.0452 413.292 59.0986C411.091 57.152 409.991 54.6553 409.991 51.6084ZM468.428 122.766C470.417 122.766 472.109 122.406 473.506 121.687C474.945 120.925 476.024 119.867 476.743 118.513C477.505 117.116 477.865 115.445 477.822 113.498H497.944C497.987 118.661 496.717 123.189 494.136 127.082C491.597 130.933 488.127 133.938 483.726 136.096C479.367 138.212 474.437 139.27 468.936 139.27C463.561 139.27 458.864 138.402 454.844 136.667C450.824 134.89 447.459 132.435 444.751 129.304C442.085 126.13 440.075 122.427 438.721 118.195C437.409 113.964 436.753 109.372 436.753 104.421V102.961C436.753 98.0098 437.409 93.4183 438.721 89.1865C440.075 84.9124 442.085 81.2096 444.751 78.0781C447.459 74.9043 450.802 72.4499 454.78 70.7148C458.8 68.9375 463.477 68.0488 468.809 68.0488C474.521 68.0488 479.557 69.1279 483.916 71.2861C488.317 73.4443 491.766 76.5758 494.263 80.6807C496.759 84.7855 497.987 89.7578 497.944 95.5977H477.822C477.865 93.5241 477.547 91.6621 476.87 90.0117C476.193 88.3613 475.135 87.0495 473.696 86.0762C472.3 85.0605 470.501 84.5527 468.301 84.5527C466.1 84.5527 464.323 85.0394 462.969 86.0127C461.615 86.986 460.578 88.3402 459.858 90.0752C459.181 91.7679 458.716 93.7145 458.462 95.915C458.25 98.1156 458.145 100.464 458.145 102.961V104.421C458.145 106.96 458.25 109.351 458.462 111.594C458.716 113.794 459.202 115.741 459.922 117.434C460.641 119.084 461.678 120.396 463.032 121.369C464.386 122.3 466.185 122.766 468.428 122.766ZM536.576 118.703C536.576 117.518 536.174 116.503 535.37 115.656C534.608 114.768 533.254 113.964 531.308 113.244C529.361 112.482 526.632 111.721 523.119 110.959C519.776 110.24 516.623 109.287 513.661 108.103C510.741 106.918 508.181 105.479 505.98 103.786C503.78 102.093 502.045 100.083 500.775 97.7559C499.548 95.4284 498.935 92.7624 498.935 89.7578C498.935 86.8379 499.548 84.0872 500.775 81.5059C502.045 78.8822 503.886 76.5758 506.298 74.5869C508.752 72.5557 511.736 70.9688 515.248 69.8262C518.76 68.6413 522.759 68.0488 527.245 68.0488C533.424 68.0488 538.756 69.001 543.241 70.9053C547.727 72.7673 551.176 75.391 553.588 78.7764C556.042 82.1195 557.27 85.9915 557.27 90.3926H535.878C535.878 88.6576 535.582 87.1764 534.989 85.9492C534.439 84.722 533.529 83.791 532.26 83.1562C530.99 82.4792 529.298 82.1406 527.182 82.1406C525.701 82.1406 524.346 82.4157 523.119 82.9658C521.934 83.516 520.982 84.2777 520.263 85.251C519.543 86.2243 519.184 87.3669 519.184 88.6787C519.184 89.6097 519.395 90.4561 519.818 91.2178C520.284 91.9372 520.982 92.6143 521.913 93.249C522.844 93.8415 524.029 94.3916 525.468 94.8994C526.907 95.3649 528.642 95.7881 530.673 96.1689C535.285 97.0153 539.602 98.2214 543.622 99.7871C547.642 101.353 550.901 103.575 553.397 106.452C555.937 109.33 557.206 113.202 557.206 118.068C557.206 121.115 556.508 123.929 555.111 126.511C553.715 129.05 551.705 131.293 549.081 133.239C546.457 135.144 543.305 136.625 539.623 137.683C535.941 138.741 531.794 139.27 527.182 139.27C520.622 139.27 515.079 138.106 510.551 135.778C506.023 133.409 502.595 130.446 500.268 126.892C497.982 123.295 496.84 119.655 496.84 115.974H516.771C516.856 118.09 517.364 119.825 518.295 121.179C519.268 122.533 520.559 123.527 522.167 124.162C523.775 124.797 525.637 125.114 527.753 125.114C529.7 125.114 531.308 124.839 532.577 124.289C533.889 123.739 534.883 122.998 535.561 122.067C536.238 121.094 536.576 119.973 536.576 118.703ZM581.746 83.9814V138H560.354V69.3184H580.413L581.746 83.9814ZM579.207 101.311L574.192 101.438C574.192 96.1901 574.827 91.514 576.097 87.4092C577.366 83.262 579.165 79.7497 581.492 76.8721C583.82 73.9945 586.591 71.8151 589.808 70.334C593.066 68.8105 596.684 68.0488 600.662 68.0488C603.836 68.0488 606.735 68.5143 609.358 69.4453C612.024 70.3763 614.31 71.8786 616.214 73.9521C618.16 76.0257 619.642 78.7764 620.657 82.2041C621.715 85.5895 622.244 89.779 622.244 94.7725V138H600.726V94.709C600.726 91.9583 600.345 89.8636 599.583 88.4248C598.821 86.9437 597.721 85.9281 596.282 85.3779C594.843 84.8278 593.087 84.5527 591.014 84.5527C588.813 84.5527 586.951 84.9759 585.428 85.8223C583.904 86.6686 582.677 87.8535 581.746 89.377C580.857 90.8581 580.201 92.6143 579.778 94.6455C579.397 96.6768 579.207 98.8984 579.207 101.311ZM663.288 120.734V92.4238C663.288 90.4772 663.013 88.8057 662.463 87.4092C661.913 86.0127 661.045 84.9336 659.86 84.1719C658.675 83.3678 657.089 82.9658 655.1 82.9658C653.492 82.9658 652.116 83.2409 650.974 83.791C649.831 84.3411 648.964 85.1663 648.371 86.2666C647.779 87.3669 647.482 88.7633 647.482 90.4561H626.091C626.091 87.2822 626.789 84.3411 628.186 81.6328C629.624 78.8822 631.656 76.4912 634.279 74.46C636.945 72.4287 640.119 70.863 643.801 69.7627C647.525 68.6201 651.672 68.0488 656.242 68.0488C661.701 68.0488 666.568 68.9587 670.842 70.7783C675.158 72.598 678.565 75.3275 681.062 78.9668C683.558 82.5638 684.807 87.0918 684.807 92.5508V120.671C684.807 125.157 685.061 128.563 685.568 130.891C686.076 133.176 686.796 135.186 687.727 136.921V138H666.271C665.256 135.884 664.494 133.303 663.986 130.256C663.521 127.167 663.288 123.993 663.288 120.734ZM665.891 96.042L666.018 107.468H656.56C654.571 107.468 652.878 107.743 651.481 108.293C650.127 108.843 649.027 109.605 648.181 110.578C647.377 111.509 646.784 112.567 646.403 113.752C646.065 114.937 645.896 116.185 645.896 117.497C645.896 118.767 646.192 119.909 646.784 120.925C647.419 121.898 648.265 122.66 649.323 123.21C650.381 123.76 651.566 124.035 652.878 124.035C655.248 124.035 657.258 123.591 658.908 122.702C660.601 121.771 661.892 120.65 662.78 119.338C663.669 118.026 664.113 116.799 664.113 115.656L668.811 124.416C667.964 126.109 666.991 127.823 665.891 129.558C664.833 131.293 663.5 132.901 661.892 134.382C660.326 135.821 658.4 137.006 656.115 137.937C653.83 138.825 651.058 139.27 647.8 139.27C643.568 139.27 639.675 138.402 636.12 136.667C632.608 134.932 629.794 132.52 627.678 129.431C625.562 126.299 624.504 122.702 624.504 118.64C624.504 115.085 625.139 111.911 626.408 109.118C627.72 106.325 629.688 103.955 632.312 102.009C634.935 100.062 638.278 98.5811 642.341 97.5654C646.403 96.5498 651.185 96.042 656.687 96.042H665.891ZM711.759 82.5215V164.406H690.367V69.3184H710.299L711.759 82.5215ZM753.907 102.834V104.167C753.907 109.16 753.336 113.794 752.193 118.068C751.051 122.342 749.358 126.066 747.115 129.24C744.872 132.414 742.079 134.89 738.736 136.667C735.436 138.402 731.606 139.27 727.247 139.27C723.142 139.27 719.609 138.36 716.646 136.54C713.684 134.72 711.209 132.202 709.22 128.986C707.231 125.77 705.623 122.089 704.396 117.941C703.168 113.794 702.195 109.414 701.476 104.802V103.088C702.195 98.1367 703.168 93.5452 704.396 89.3135C705.623 85.0394 707.231 81.3154 709.22 78.1416C711.209 74.9678 713.663 72.4922 716.583 70.7148C719.545 68.9375 723.079 68.0488 727.184 68.0488C731.542 68.0488 735.372 68.874 738.673 70.5244C742.016 72.1748 744.809 74.5446 747.052 77.6338C749.337 80.6807 751.051 84.3411 752.193 88.6152C753.336 92.8893 753.907 97.6289 753.907 102.834ZM732.516 104.167V102.834C732.516 100.168 732.325 97.7347 731.944 95.5342C731.563 93.2913 730.95 91.3447 730.104 89.6943C729.299 88.0439 728.22 86.7744 726.866 85.8857C725.512 84.9971 723.84 84.5527 721.852 84.5527C719.566 84.5527 717.641 84.9124 716.075 85.6318C714.552 86.3089 713.325 87.3669 712.394 88.8057C711.505 90.2021 710.87 91.9583 710.489 94.0742C710.151 96.1478 710.003 98.5811 710.045 101.374V106.579C709.96 109.795 710.278 112.631 710.997 115.085C711.716 117.497 712.965 119.38 714.742 120.734C716.52 122.089 718.932 122.766 721.979 122.766C724.01 122.766 725.702 122.3 727.057 121.369C728.411 120.396 729.49 119.063 730.294 117.37C731.098 115.635 731.669 113.646 732.008 111.403C732.346 109.16 732.516 106.748 732.516 104.167Z" fill="#212B36"/>
<rect width="187.891" height="187.891" rx="40" fill="#078DEE"/>
<path fill-rule="evenodd" clip-rule="evenodd" d="M45.5744 101.993C47.3414 105.782 49.7536 109.065 52.6192 111.771L31.9747 121.397C31.23 121.745 30.4745 122.041 29.7123 122.287C29.5976 127.077 30.5575 131.967 32.72 136.605C40.2165 152.681 59.3261 159.636 75.4025 152.14L127.249 127.964C143.325 120.467 150.28 101.357 142.784 85.2811C141.017 81.4918 138.605 78.2092 135.739 75.5032L156.383 65.8765C157.128 65.5293 157.884 65.2333 158.646 64.9873C158.761 60.1966 157.801 55.3067 155.638 50.6692C148.142 34.5929 129.032 27.6375 112.956 35.1341L61.1096 59.3103C45.0332 66.8068 38.0779 85.9165 45.5744 101.993ZM93.1418 110.004C102.011 110.004 109.201 102.814 109.201 93.9446C109.201 85.0755 102.011 77.8856 93.1418 77.8856C84.2726 77.8856 77.0828 85.0755 77.0828 93.9446C77.0828 102.814 84.2726 110.004 93.1418 110.004Z" fill="white"/>
</svg>
